<?xml version="1.0" standalone="no"?>
<!DOCTYPE svg PUBLIC "-//W3C//DTD SVG 20010904//EN"
 "http://www.w3.org/TR/2001/REC-SVG-20010904/DTD/svg10.dtd">
<svg version="1.0" xmlns="http://www.w3.org/2000/svg"
 width="1080.000000pt" height="1080.000000pt" viewBox="0 0 1080.000000 1080.000000"
 preserveAspectRatio="xMidYMid meet">

<g transform="translate(0.000000,1080.000000) scale(0.100000,-0.100000)"
fill="#000000" stroke="none">
<path d="M332 5403 l3 -5068 5068 -3 5067 -2 -2 5067 -3 5068 -5068 3 -5067 2
2 -5067z m1568 4267 c6 -9 10 -152 10 -337 l0 -323 335 0 335 0 0 -329 c0
-279 2 -330 15 -341 11 -9 92 -11 337 -9 l323 4 0 -325 c0 -179 4 -331 8 -338
7 -10 81 -12 334 -12 179 1 329 -3 333 -7 4 -4 5 -158 2 -341 l-5 -334 -323 4
c-212 2 -327 -1 -333 -7 -7 -7 -12 -132 -13 -340 l-3 -330 -337 -3 -338 -2 0
-330 c0 -252 -3 -331 -12 -337 -7 -4 -160 -6 -339 -4 l-325 3 4 -319 c3 -231
1 -326 -7 -341 -12 -22 -14 -22 -336 -22 -270 0 -325 2 -332 14 -4 8 -7 161
-5 340 l3 326 329 0 c252 0 331 3 337 13 4 6 8 158 8 337 l0 325 325 0 c179 0
331 4 338 8 9 6 12 85 12 337 l0 330 338 2 337 3 2 320 c2 192 -1 326 -7 335
-8 13 -54 15 -338 11 -271 -3 -330 -1 -334 10 -2 8 -1 145 3 304 5 180 4 304
-2 327 l-10 38 -332 2 -332 3 -3 338 -2 337 -330 0 -330 0 -9 23 c-6 15 -7
652 -2 652 1 0 150 0 331 0 283 0 332 -2 340 -15z m6080 -4059 c6 -13 10 -138
10 -340 l0 -321 -1689 0 c-930 0 -1691 3 -1693 8 -2 4 -2 157 0 340 l4 332
1678 0 c1650 0 1679 0 1690 -19z"/>
</g>
</svg>
